<svg width="48" height="36" fill="none" xmlns="http://www.w3.org/2000/svg"><path fill-rule="evenodd" clip-rule="evenodd" d="M33.742 2.624A3.993 3.993 0 0030 0c-2.596 0-4.626 2.488-3.808 5.164.655-.233 1.33-.52 2.032-.818 1.679-.712 3.502-1.486 5.518-1.722zM26 20a2 2 0 10-3.999-.001A2 2 0 0026 20zm10.636 9.746c2.926-.622 4.942-2.98 4.292-6.454 2.798 3.034-.31 7.898-4.292 6.454zm-28.002 0c2.926-.622 4.942-2.98 4.292-6.454 2.798 3.034-.312 7.898-4.292 6.454zm5.624-27.122A3.993 3.993 0 0118 0c2.596 0 4.626 2.488 3.808 5.164-.654-.233-1.33-.52-2.031-.817-1.68-.712-3.503-1.486-5.519-1.723zm6.01 8.364c2.416.792 5.034.796 7.462 0 1.39-.454 2.538-.947 3.51-1.365 2.682-1.153 4.018-1.727 5.394.703l.966 1.7a703.419 703.419 0 012.364 4.168c-5.708-1.15-11.144 2.832-11.88 8.508-2.466-1.24-5.588-1.294-8.168 0-.738-5.678-6.172-9.658-11.882-8.508a741.03 741.03 0 011.927-3.398l.001-.001v-.001l.002-.002 1.4-2.464c1.375-2.431 2.71-1.858 5.396-.704.97.417 2.118.91 3.508 1.364zm8.56-4.722c1.848-.781 3.85-1.628 5.782-1.628 1.996 0 3.914.904 5.508 3.72a911.66 911.66 0 001.51 2.658l.002.001C45.564 17.921 48 22.196 48 26c0 5.522-4.476 10-10 10-4.392 0-6.465-2.438-8.357-4.663-1.588-1.866-3.048-3.583-5.643-3.583-2.595 0-4.055 1.717-5.643 3.583C16.465 33.562 14.392 36 10 36 4.476 36 0 31.522 0 26c0-3.803 2.435-8.077 6.368-14.98.483-.847.988-1.734 1.514-2.664 1.592-2.814 3.512-3.718 5.508-3.718 1.932 0 3.937.848 5.786 1.63.816.345 1.602.677 2.338.918a7.987 7.987 0 004.972 0c.737-.241 1.525-.574 2.342-.92zM38 32c-3.308 0-6-2.692-6-6s2.692-6 6-6 6 2.692 6 6-2.692 6-6 6zM4 26c0 3.308 2.692 6 6 6s6-2.692 6-6-2.692-6-6-6-6 2.692-6 6z" fill="#333"/></svg>