<svg width="346" height="86" fill="none" xmlns="http://www.w3.org/2000/svg"><path fill-rule="evenodd" clip-rule="evenodd" d="M24.222 32.524l4.31.234c1.098 0 1.96-.026 2.588-.078 1.41-1.72 3.03-3.7 4.86-5.942 3.5-4.17 5.408-6.463 5.722-6.88 1.254-1.772 2.43-2.658 3.527-2.658.575 0 1.098.182 1.568.547.47.365.706.9.706 1.603 0 .704-3.084 4.834-9.25 12.392 6.637-1.303 12.594-3.362 17.872-6.177 5.278-2.814 7.917-5.785 7.917-8.912 0-1.303-2.704-1.955-8.113-1.955-5.409 0-11.457.704-18.147 2.111-6.688 1.407-12.463 3.127-17.323 5.16-4.86 2.033-7.29 3.805-7.29 5.316 0 .157.196.235.588.235.392 0 1.502-.326 3.331-.977 1.83-.652 3.057-.977 3.684-.977.628 0 1.02.208 1.176.625 0 1.303-1.45 2.671-4.35 4.105-2.9 1.433-5.735 2.15-8.505 2.15-2.77 0-4.978-.678-6.624-2.033S0 26.895 0 23.923c0-3.96 2.482-7.83 7.447-11.61 4.964-3.778 11.052-6.775 18.264-8.99S39.873 0 46.56 0c6.69 0 12.086 1.277 16.188 3.83 4.102 2.555 6.153 6.49 6.153 11.806 0 1.929-.797 4.027-2.39 6.294-1.595 2.267-3.829 4.482-6.703 6.646-2.874 2.162-6.65 4.091-11.327 5.785s-9.759 2.828-15.246 3.4a3364.49 3364.49 0 01-11.64 13.878c-2.535 2.997-4.05 4.808-4.547 5.434-.496.625-1.136.938-1.92.938s-1.372-.274-1.764-.821c-.392-.547-.588-1.094-.588-1.642 0-.547.157-1.03.47-1.446A3055.62 3055.62 0 0026.495 38.23h-1.882a5.01 5.01 0 01-2.547-.704c-.81-.469-1.215-1.185-1.215-2.15 0-.964.353-1.68 1.058-2.15a4.091 4.091 0 012.313-.703zM85.677 53.71c-1.83 1.407-4.037 2.762-6.624 4.065-2.587 1.303-4.755 1.955-6.506 1.955-1.75 0-3.148-.521-4.194-1.564-1.045-1.042-1.567-2.32-1.567-3.83 0-2.503 1.803-5.864 5.408-10.086.314-.313.47-.56.47-.743 0-.182-.052-.274-.156-.274-.105 0-.483.118-1.137.352-.653.235-2.443 1.434-5.37 3.597a133.242 133.242 0 00-8.543 6.88c-2.77 2.423-4.743 3.635-5.919 3.635-1.175 0-2.038-.495-2.586-1.485-.55-.99-.823-2.111-.823-3.362 0-3.857 3.017-9.72 9.053-17.591 6.036-7.87 12.346-14.894 18.93-21.07 6.585-6.176 10.792-9.265 12.621-9.265.888 0 1.738.378 2.548 1.134.81.756 1.215 1.772 1.215 3.05 0 1.276-1.568 4.104-4.704 8.482-3.135 4.378-6.636 8.99-10.504 13.838C72.43 37.475 70 40.76 70 41.28c0 .209.105.313.314.313.21 0 1.097-.43 2.665-1.29a51.432 51.432 0 015.095-2.424c1.83-.756 3.097-1.199 3.802-1.329.706-.13 1.542-.195 2.509-.195.966 0 1.933.208 2.9.625.967.417 1.45 1.03 1.45 1.837 0 .808-1.894 3.388-5.683 7.74-3.789 4.352-5.683 6.828-5.683 7.427 0 .6.261.9.784.9 1.097 0 3.24-1.147 6.427-3.44 1.203-.834 1.908-1.303 2.117-1.408.209-.104.444-.156.706-.156.731 0 1.097.365 1.097 1.094 0 .418-.94 1.33-2.822 2.737zm24.77-14.855c0 1.408.836 2.111 2.509 2.111 1.567 0 3.292-.39 5.173-1.172 1.881-.782 2.9-1.173 3.057-1.173.157 0 .327.13.51.39.183.261.274.522.274.782 0 .574-1.215 1.317-3.645 2.229-2.43.912-4.194 1.368-5.291 1.368a45.85 45.85 0 01-2.312-.04c-.445-.025-.797.248-1.059.822-3.867 7.245-7.708 11.805-11.522 13.681a11.703 11.703 0 01-5.292 1.252c-1.855 0-3.37-.613-4.546-1.838-1.176-1.225-1.764-3.166-1.764-5.824 0-3.701 1.215-7.154 3.645-10.36 2.43-3.205 5.187-5.616 8.27-7.231 3.083-1.616 5.879-2.424 8.387-2.424 4.233.47 6.35 1.746 6.35 3.831 0 .573-.144 1.082-.431 1.525-.288.443-.523.703-.706.781a3.414 3.414 0 01-.666.196c-.627.156-.941.521-.941 1.094zm-6.428 3.597c-1.672 1.25-3.305 2.84-4.899 4.769-1.594 1.928-2.39 3.505-2.39 4.73 0 1.225.34 1.837 1.019 1.837 1.045 0 2.965-1.603 5.761-4.808 2.796-3.206 4.194-5.85 4.194-7.936 0-.312-.196-.469-.588-.469-.392 0-1.424.626-3.097 1.877zm11.367-16.575c0-.834 2.247-1.59 6.741-2.267 4.494-.678 9.302-1.147 14.423-1.407 4.285-3.857 8.152-7.141 11.601-9.851l1.725-1.408c.784 0 1.176.574 1.176 1.72l.156 3.831c-.156.574-1.254 2.372-3.292 5.395h3.841c5.801 0 9.158.56 10.073 1.68.914 1.121 1.372 2.02 1.372 2.698 0 .886-.889 1.355-2.666 1.407-1.776.053-7.342.079-16.696.079-7.473 7.661-13.326 14.463-17.559 20.405a269.84 269.84 0 00-4.233 5.864c-1.201 1.72-2.129 2.931-2.782 3.635-.653.704-1.268 1.056-1.842 1.056-1.725 0-3.188-.574-4.39-1.72-1.202-1.147-1.803-2.554-1.803-4.222 0-4.587 6.402-12.9 19.205-24.94h-12.072c-1.986 0-2.978-.652-2.978-1.955zm40.526 12.978c0 1.408.836 2.111 2.508 2.111 1.568 0 3.292-.39 5.174-1.172 1.881-.782 2.9-1.173 3.057-1.173.156 0 .326.13.509.39.183.261.275.522.275.782 0 .574-1.215 1.317-3.645 2.229-2.43.912-4.194 1.368-5.292 1.368a45.85 45.85 0 01-2.312-.04c-.444-.025-.797.248-1.058.822-3.867 7.245-7.708 11.805-11.523 13.681a11.701 11.701 0 01-5.291 1.252c-1.855 0-3.371-.613-4.547-1.838-1.175-1.225-1.763-3.166-1.763-5.824 0-3.701 1.215-7.154 3.645-10.36 2.43-3.205 5.186-5.616 8.269-7.231 3.084-1.616 5.879-2.424 8.388-2.424 4.233.47 6.349 1.746 6.349 3.831 0 .573-.144 1.082-.431 1.525-.287.443-.523.703-.705.781a3.405 3.405 0 01-.667.196c-.627.156-.94.521-.94 1.094zm-6.428 3.597c-1.672 1.25-3.305 2.84-4.899 4.769-1.594 1.928-2.391 3.505-2.391 4.73 0 1.225.34 1.837 1.019 1.837 1.045 0 2.966-1.603 5.761-4.808 2.796-3.206 4.194-5.85 4.194-7.936 0-.312-.196-.469-.588-.469-.392 0-1.424.626-3.096 1.877zm22.575 10.241c-3.135 1.929-5.67 2.893-7.603 2.893-1.934 0-3.397-.677-4.39-2.033-.993-1.355-1.489-2.58-1.489-3.674 0-1.095.339-2.345 1.019-3.753.679-1.407 1.737-2.97 3.175-4.69a35.115 35.115 0 014.977-4.848c1.881-1.511 4.194-2.775 6.937-3.792a24.514 24.514 0 018.584-1.524c1.254 0 2.691.456 4.311 1.368 1.62.912 2.43 2.02 2.43 3.323 0 .886-.732 1.511-2.195 1.876-3.971 1.095-7.878 2.775-11.719 5.043-3.841 2.267-5.761 4.365-5.761 6.293 0 .522.235.782.705.782 1.673 0 4.717-1.798 9.132-5.394 4.416-3.597 6.702-5.395 6.859-5.395.732 0 1.098.495 1.098 1.486 0 2.293-1.176 5.89-3.528 10.789-2.351 4.9-5.239 9.863-8.661 14.893-3.423 5.03-7.382 9.447-11.876 13.252-4.494 3.805-8.623 5.707-12.385 5.707-.575 0-1.268-.586-2.077-1.759-.81-1.172-1.215-2.124-1.215-2.853 0-.73.026-1.173.078-1.33.522-1.876 3.893-5.081 10.112-9.616a221.191 221.191 0 007.603-5.668c2.509-1.955 4.625-4.04 6.35-6.254 1.724-2.216 2.586-4.288 2.586-6.216 0-.104-.182-.156-.548-.156-.366 0-1.202.417-2.509 1.25zm32.531-24.47c.366 0 .705.169 1.019.508.314.339.47.73.47 1.172 0 .444-.261 1.004-.784 1.681-2.038 2.502-3.383 4.079-4.037 4.73-.653.652-.979 1.082-.979 1.29 0 .209.169.313.509.313.34 0 1.738-.456 4.194-1.368 2.456-.912 4.076-1.368 4.86-1.368.784 0 1.594.326 2.43.977.836.652 1.254 1.486 1.254 2.502 0 1.016-1.594 3.336-4.782 6.958-3.187 3.623-4.781 5.981-4.781 7.075 0 .209.078.313.235.313.261 0 .732-.17 1.411-.508.679-.339 1.097-.508 1.254-.508.575 0 .862.208.862.625 0 1.616-1.28 3.232-3.841 4.848-2.56 1.615-4.716 2.423-6.466 2.423-1.751 0-3.175-.482-4.273-1.446-1.097-.964-1.646-2.254-1.646-3.87s.797-3.427 2.391-5.434c1.594-2.006 3.24-3.427 4.938-4.26 1.699-.835 2.548-1.512 2.548-2.033 0-.157-.026-.261-.078-.313-2.3.938-4.181 1.407-5.644 1.407-2.874 0-4.311-.834-4.311-2.502 0-1.928 1.672-4.456 5.016-7.583 3.345-3.128 6.088-5.004 8.231-5.63zm29.16 26.034c0 .26.183.443.549.547.365 0 1.633-.742 3.801-2.228 2.169-1.485 3.397-2.306 3.685-2.462.287-.157.561-.235.823-.235.731 0 1.097.352 1.097 1.055 0 .704-1.842 2.255-5.526 4.652-3.684 2.398-6.284 3.597-7.8 3.597-.627 0-1.293-.261-1.999-.782-.705-.521-1.058-1.134-1.058-1.837 0-.704.183-1.473.549-2.307.366-.834.549-1.394.549-1.68 0-.287-.079-.43-.236-.43a.846.846 0 00-.47.156c-5.069 3.804-8.805 5.707-11.209 5.707-1.359 0-2.43-.495-3.214-1.486-.784-.99-1.254-1.98-1.411-2.97l-.157-1.486c0-1.72.666-3.714 1.999-5.98 1.333-2.268 3.083-4.431 5.252-6.49 2.169-2.059 4.834-3.792 7.995-5.199 3.162-1.407 6.389-2.11 9.681-2.11 1.777 0 3.436.468 4.978 1.406 1.541.939 2.312 2.033 2.312 3.284 0 1.25-1.228 2.007-3.684 2.267-1.829.417-4.847 1.916-9.054 4.496-4.206 2.58-6.31 4.547-6.31 5.902 0 .574.288.86.862.86 1.046 0 3.515-1.485 7.408-4.456 3.893-2.97 6.232-4.456 7.016-4.456.784 0 1.175.469 1.175 1.407 0 .678-.248 1.316-.744 1.916-.497.599-.849 1.029-1.058 1.29-.419.52-1.49 1.68-3.214 3.478-1.725 1.799-2.587 3.323-2.587 4.574zm-7.76 26.113c0-2.502 1.241-6.072 3.723-10.711 2.482-4.639 5.474-9.408 8.975-14.307 7.525-10.32 14.058-18.712 19.597-25.175l3.684-4.3c.784-.73 1.568-1.094 2.352-1.094.784 0 1.359.286 1.724.86.366.573.549 1.081.549 1.524 0 .443-.3 1.42-.901 2.932a222.068 222.068 0 01-2.156 5.2l-1.372 3.205a1.476 1.476 0 00-.117.586c0 .208.169.313.509.313.34 0 1.163-.574 2.469-1.72 4.024-3.44 7.055-5.16 9.093-5.16 3.71 0 5.566 1.876 5.566 5.629-.262 1.928-1.437 4.43-3.528 7.505-2.09 3.075-4.716 5.877-7.878 8.405-3.161 2.528-6.075 3.791-8.74 3.791-1.149 0-2.142-.286-2.979-.86-.836-.573-1.463-1.146-1.881-1.72-.418-.573-.692-.86-.823-.86s-.287.13-.47.392c-.183.26-5.265 8.6-15.246 25.018-2.613 4.117-5.174 6.176-7.682 6.176-1.307 0-2.378-.586-3.214-1.76-.836-1.172-1.254-2.462-1.254-3.87zm44.367-42.531c-1.307 0-4.063 2.033-8.27 6.098-4.207 4.066-6.31 6.62-6.31 7.662 0 .104.104.156.313.156 1.986 0 4.965-1.863 8.936-5.59 3.972-3.726 5.958-6.345 5.958-7.857 0-.313-.209-.469-.627-.469zm42.093 15.87c-1.829 1.408-4.037 2.763-6.623 4.066-2.587 1.303-4.756 1.955-6.506 1.955-1.751 0-3.149-.521-4.194-1.564-1.045-1.042-1.568-2.32-1.568-3.83 0-2.503 1.803-5.864 5.409-10.086.313-.313.47-.56.47-.743 0-.182-.052-.274-.157-.274-.104 0-.483.118-1.136.352-.653.235-2.443 1.434-5.37 3.597a133.433 133.433 0 00-8.544 6.88c-2.77 2.423-4.742 3.635-5.918 3.635-1.176 0-2.038-.495-2.587-1.485-.549-.99-.823-2.111-.823-3.362 0-3.857 3.018-9.72 9.054-17.591 6.036-7.87 12.346-14.894 18.93-21.07 6.585-6.176 10.791-9.265 12.62-9.265.889 0 1.738.378 2.548 1.134.81.756 1.215 1.772 1.215 3.05 0 1.276-1.568 4.104-4.703 8.482-3.136 4.378-6.637 8.99-10.504 13.838-4.86 6.046-7.29 9.33-7.29 9.851 0 .209.105.313.314.313.209 0 1.097-.43 2.665-1.29a51.355 51.355 0 015.095-2.424c1.829-.756 3.096-1.199 3.802-1.329.705-.13 1.541-.195 2.508-.195.967 0 1.934.208 2.9.625.967.417 1.45 1.03 1.45 1.837 0 .808-1.894 3.388-5.683 7.74-3.788 4.352-5.683 6.828-5.683 7.427 0 .6.262.9.784.9 1.098 0 3.24-1.147 6.428-3.44 1.202-.834 1.907-1.303 2.116-1.408.209-.104.445-.156.706-.156.732 0 1.097.365 1.097 1.094 0 .418-.94 1.33-2.822 2.737zm.471-3.44c0-2.188 1.371-4.742 4.115-7.66 2.744-2.92 5.539-5.33 8.387-7.233 2.849-1.902 4.638-2.853 5.37-2.853.732 0 1.293.52 1.685 1.563.392 1.043.588 1.942.588 2.697 0 .756-.039 1.264-.117 1.525-.079.26-.157.443-.236.547a2.693 2.693 0 01-.392.391c-.182.157-.365.326-.548.508-.183.183-1.058 1.173-2.626 2.971-1.568 1.799-2.443 2.841-2.626 3.128-.183.286-.275.651-.275 1.094 0 .443.183.665.549.665.366 0 .68-.105.941-.313 1.933-1.199 6.349-4.613 13.247-10.242 1.411-.99 2.352-1.485 2.822-1.485.47 0 .954.221 1.45.664.497.443.745.795.745 1.056 0 1.511-1.633 4.6-4.899 9.264-3.266 4.665-7.303 10.112-12.111 16.34-4.808 6.229-7.995 10.516-9.563 12.861-1.568 2.346-3.083 3.518-4.547 3.518-.731 0-1.463-.377-2.194-1.133-.732-.756-1.098-1.668-1.098-2.737 0-1.068.079-2.058.235-2.97.157-.913.654-2.098 1.49-3.558s1.933-3.036 3.292-4.73a267.777 267.777 0 013.645-4.456 128.09 128.09 0 013.684-4.183c1.385-1.511 2.169-2.385 2.352-2.619.183-.234.274-.43.274-.586 0-.157-.065-.235-.196-.235s-1.333.625-3.606 1.877c-2.273 1.25-4.128 1.876-5.565 1.876-1.437 0-2.509-.704-3.214-2.111-.706-1.407-1.058-2.554-1.058-3.44z" fill="#fff"/></svg>