<svg width="41" height="48" fill="none" xmlns="http://www.w3.org/2000/svg"><path fill-rule="evenodd" clip-rule="evenodd" d="M27.568 3.298A7.321 7.321 0 0133.698 0c5.751 0 9.287 6.438 6.1 11.29-1.095 1.67-2.672 2.752-4.19 3.794-.976.67-1.928 1.323-2.713 2.106-2.818 2.798 2.156 7.408 5.243 9.89C33.142 33.266 28.61 40.018 24.449 48c-9.895-6.462-12.92-8.434-14.796-9.656l-.002-.001A4628.474 4628.474 0 010 32.034l.188-.23c3.608-4.421 7.806-9.565 13.54-20.666 3.328 1.734 9.61 4.464 11.096 1.048.413-.948.647-2.123.894-3.368.37-1.861.771-3.878 1.85-5.52zM20.562 40.75l2.409 1.526c1.67-2.972 3.873-6.47 6.077-9.698L12.403 21.654c-2.038 3.284-4.254 6.522-6.532 9.456l2.61 1.63c1.626-.248 3.71-1.842 4.676-3.49.15 2.276-.658 3.97-1.723 5.376l6.73 4.462c1.09-1.122 2.023-1.682 3.244-2.086a8.992 8.992 0 00-.846 3.748zM36.457 9.108c-.53.808-2.083 1.946-3.586 3.048-1.1.806-2.174 1.592-2.8 2.216-1.366 1.36-2.034 3.122-1.928 5.096.143 2.708 1.71 5.562 4.449 8.17-.403.53-.818 1.086-1.24 1.666L14.45 18.208l1.01-1.766c2.137.89 4.213 1.356 6.082 1.356 3.301 0 5.832-1.466 6.947-4.024.425-.977.779-2.521 1.126-4.038.405-1.77.802-3.501 1.293-4.252 2.42-3.666 7.95-.034 5.55 3.624zm-3.739-.334a1.767 1.767 0 002.447-.514 1.762 1.762 0 00-.507-2.446 1.772 1.772 0 00-2.451.514 1.762 1.762 0 00.511 2.446z" fill="#333"/></svg>