<svg width="72" height="60" fill="none" xmlns="http://www.w3.org/2000/svg"><path fill-rule="evenodd" clip-rule="evenodd" d="M51 0H27l-4.218 6.327A5.995 5.995 0 0117.79 9H0v51h72V9H60.21a5.995 5.995 0 01-4.992-2.673L51 0zM6 6h9V3H6v3zm44.226 3.657L47.79 6H30.21l-2.436 3.657A11.972 11.972 0 0117.79 15H6v39h60V15h-5.79a11.972 11.972 0 01-9.984-5.343zM15 21a3 3 0 110 6 3 3 0 110-6zm24 3c4.962 0 9 4.038 9 9s-4.038 9-9 9-9-4.038-9-9 4.038-9 9-9zm-15 9c0-8.283 6.717-15 15-15 8.283 0 15 6.717 15 15 0 8.283-6.717 15-15 15-8.283 0-15-6.717-15-15z" fill="#333"/></svg>