<svg width="60" height="72" fill="none" xmlns="http://www.w3.org/2000/svg"><path fill-rule="evenodd" clip-rule="evenodd" d="M28.056 5.871V0h4.113v5.892a24.054 24.054 0 00-2.178-.105c-.645 0-1.29.03-1.935.084zM48 27.603c0 5.67-2.704 10.369-5.248 14.79-2.26 3.926-4.394 7.633-4.394 11.607h-5.967c-.009-5.574 2.61-10.167 5.163-14.601l.017-.03C39.848 35.407 42 31.659 42 27.604c0-7.776-6.225-11.316-12.009-11.316-5.775 0-11.991 3.54-11.991 11.316 0 4.055 2.152 7.803 4.43 11.767l.016.029c2.553 4.434 5.175 9.027 5.16 14.601h-5.964c0-3.974-2.134-7.681-4.394-11.608C14.704 37.972 12 33.273 12 27.603c0-11.169 8.994-17.316 17.991-17.316C38.994 10.287 48 16.44 48 27.603zM36 57H24a1.5 1.5 0 000 3h12a1.5 1.5 0 000-3zm0 6H24a1.5 1.5 0 000 3h12a1.5 1.5 0 000-3zm-12.75 6h13.5l-3.561 2.346c-.462.414-1.143.654-1.845.654h-2.685c-.705 0-1.383-.24-1.845-.654L23.25 69zM60 29.646v-4.113h-7.605c.054.678.105 1.359.105 2.07 0 .699-.054 1.374-.114 2.043H60zM13.707 3.933l3.12 5.82a23.31 23.31 0 013.615-1.965l-3.111-5.799-3.624 1.944zm34.878 11.025l5.826-4.182 2.397 3.345-6.162 4.419a20.09 20.09 0 00-2.061-3.582zM42.669 1.989l-3.114 5.802a23.289 23.289 0 013.615 1.965l3.123-5.823-3.624-1.944zM9.351 18.54l-6.162-4.416 2.397-3.345 5.826 4.179a20.063 20.063 0 00-2.061 3.582zm48.183 21.531l-7.062-2.862a42.588 42.588 0 01-1.755 3.729l7.275 2.946 1.542-3.813zm-48.12-3.126a41.242 41.242 0 001.734 3.729l-7.068 3.18-1.686-3.753 7.02-3.156zM0 29.646h7.614a22.673 22.673 0 01-.114-2.043c0-.711.051-1.395.105-2.073H0v4.116z" fill="#333"/></svg>