<svg width="48" height="48" fill="none" xmlns="http://www.w3.org/2000/svg"><path fill-rule="evenodd" clip-rule="evenodd" d="M24 0c13.246 0 24 10.754 24 24S37.246 48 24 48 0 37.246 0 24 10.754 0 24 0zM9.274 37.528A19.947 19.947 0 0024 44h.008l-9.236-15.996-5.498 9.524zM41.32 34H22.854l5.498 9.524C33.886 42.294 38.56 38.768 41.32 34zM4.918 18A19.96 19.96 0 004 24c0 3.646.978 7.066 2.686 10.01l5.778-10.006-.002-.004.006-.004L15.93 18H4.918zm36.406-3.994L32.09 30h10.992A19.96 19.96 0 0044 24c0-3.64-.974-7.052-2.676-9.994zM27.47 18h-6.922l-3.466 6.004L20.544 30h6.928l3.462-5.998L27.47 18zm5.774 2.002l5.494-9.516C35.082 6.502 29.834 4.002 24.006 4l9.238 16.002zM19.66 4.474C14.122 5.7 9.442 9.228 6.68 14h18.48l-5.5-9.526z" fill="#333"/></svg>