<svg width="176" height="176" fill="none" xmlns="http://www.w3.org/2000/svg"><path opacity=".147" fill-rule="evenodd" clip-rule="evenodd" d="M8 4a4 4 0 11-8 0 4 4 0 018 0zm24 0a4 4 0 11-8 0 4 4 0 018 0zm20 4a4 4 0 100-8 4 4 0 000 8zm28-4a4 4 0 11-8 0 4 4 0 018 0zm20 4a4 4 0 100-8 4 4 0 000 8zm28-4a4 4 0 11-8 0 4 4 0 018 0zm20 4a4 4 0 100-8 4 4 0 000 8zm28-4a4 4 0 11-8 0 4 4 0 018 0zM4 32a4 4 0 100-8 4 4 0 000 8zm28-4a4 4 0 11-8 0 4 4 0 018 0zm20 4a4 4 0 100-8 4 4 0 000 8zm28-4a4 4 0 11-8 0 4 4 0 018 0zm20 4a4 4 0 100-8 4 4 0 000 8zm28-4a4 4 0 11-8 0 4 4 0 018 0zm20 4a4 4 0 100-8 4 4 0 000 8zm28-4a4 4 0 11-8 0 4 4 0 018 0zM4 56a4 4 0 100-8 4 4 0 000 8zm28-4a4 4 0 11-8 0 4 4 0 018 0zm20 4a4 4 0 100-8 4 4 0 000 8zm28-4a4 4 0 11-8 0 4 4 0 018 0zm20 4a4 4 0 100-8 4 4 0 000 8zm28-4a4 4 0 11-8 0 4 4 0 018 0zm20 4a4 4 0 100-8 4 4 0 000 8zm28-4a4 4 0 11-8 0 4 4 0 018 0zM4 80a4 4 0 100-8 4 4 0 000 8zm28-4a4 4 0 11-8 0 4 4 0 018 0zm20 4a4 4 0 100-8 4 4 0 000 8zm28-4a4 4 0 11-8 0 4 4 0 018 0zm20 4a4 4 0 100-8 4 4 0 000 8zm28-4a4 4 0 11-8 0 4 4 0 018 0zm20 4a4 4 0 100-8 4 4 0 000 8zm28-4a4 4 0 11-8 0 4 4 0 018 0zM4 104a4 4 0 100-8 4 4 0 000 8zm28-4a4 4 0 11-8 0 4 4 0 018 0zm20 4a4 4 0 100-8 4 4 0 000 8zm28-4a4 4 0 11-8 0 4 4 0 018 0zm20 4a4 4 0 100-8 4 4 0 000 8zm28-4a4 4 0 11-8 0 4 4 0 018 0zm20 4a4 4 0 100-8 4 4 0 000 8zm28-4a4 4 0 11-8 0 4 4 0 018 0zM4 128a4 4 0 100-8 4 4 0 000 8zm28-4a4 4 0 11-8 0 4 4 0 018 0zm20 4a4 4 0 100-8 4 4 0 000 8zm28-4a4 4 0 11-8 0 4 4 0 018 0zm20 4a4 4 0 100-8 4 4 0 000 8zm28-4a4 4 0 11-8 0 4 4 0 018 0zm20 4a4 4 0 100-8 4 4 0 000 8zm28-4a4 4 0 11-8 0 4 4 0 018 0zM4 152a4 4 0 100-8 4 4 0 000 8zm28-4a4 4 0 11-8 0 4 4 0 018 0zm20 4a4 4 0 100-8 4 4 0 000 8zm28-4a4 4 0 11-8 0 4 4 0 018 0zm20 4a4 4 0 100-8 4 4 0 000 8zm28-4a4 4 0 11-8 0 4 4 0 018 0zm20 4a4 4 0 100-8 4 4 0 000 8zm28-4a4 4 0 11-8 0 4 4 0 018 0zM4 176a4 4 0 100-8 4 4 0 000 8zm28-4a4 4 0 11-8 0 4 4 0 018 0zm20 4a4 4 0 100-8 4 4 0 000 8zm28-4a4 4 0 11-8 0 4 4 0 018 0zm20 4a4 4 0 100-8 4 4 0 000 8zm28-4a4 4 0 11-8 0 4 4 0 018 0zm20 4a4 4 0 100-8 4 4 0 000 8zm28-4a4 4 0 11-8 0 4 4 0 018 0z" fill="#333"/></svg>